<?xml version="1.0" encoding="UTF-8"?>
<svg xmlns="http://www.w3.org/2000/svg" xmlns:xlink="http://www.w3.org/1999/xlink" width="2209px" height="944px" viewBox="0 0 2209 944" version="1.1">
  <title>hbo</title>
  <g id="Page-1" stroke="none" stroke-width="1" fill="none" fill-rule="evenodd">
    <g id="hbo" transform="translate(0.836104, 0.296603)" fill="#3382C3" fill-rule="nonzero">
      <path d="M640.615597,938.920189 L400.882463,938.920189 L400.882463,597.011247 L245.634377,597.011247 L245.634377,938.920189 L-2.84217094e-14,938.920189 L-2.84217094e-14,56.6130237 L245.634377,56.6130237 L245.634377,385.759717 L400.882463,385.759717 L400.882463,56.6130237 L640.615597,56.6130237 L640.615597,938.920189 Z M1740.07554,942.862998 C1985.70991,942.862998 2186.14466,738.498413 2186.14466,489.906929 C2186.14466,237.398576 1985.72288,41.8793708 1740.07554,41.8793708 C1491.49702,41.8793708 1365.72921,222.651954 1335.2762,296.346158 C1335.2762,187.283405 1226.20048,56.6130237 1099.45994,56.6130237 L689.745066,56.6130237 L689.745066,938.920189 L1070.97834,938.920189 C1226.20048,938.920189 1335.2762,806.278404 1335.2762,690.341675 C1369.64608,762.064475 1491.49702,942.862998 1740.07554,942.862998 Z M1040.51236,584.223059 C1075.88091,584.223059 1104.37548,618.605906 1104.37548,657.917263 C1104.37548,699.187055 1075.86794,733.569902 1040.51236,733.569902 L918.674386,733.569902 L918.674386,584.223059 L1040.51236,584.223059 Z M1040.51236,253.117931 C1075.88091,253.117931 1104.37548,287.500778 1104.37548,326.812136 C1104.37548,366.123493 1075.86794,400.50634 1040.51236,400.50634 L918.674386,400.50634 L918.674386,253.117931 L1040.51236,253.117931 L1040.51236,253.117931 Z M1201.64872,489.906929 C1230.14329,487.948494 1276.32862,455.524082 1294.00641,435.874888 C1287.11947,459.453921 1287.11947,534.120857 1294.00641,557.71286 C1274.34425,529.205317 1230.14329,494.82247 1201.64872,489.906929 L1201.64872,489.906929 Z M1516.03582,489.906929 C1516.03582,366.110523 1616.27913,265.89315 1740.06257,265.89315 C1863.846,265.89315 1964.06338,366.110523 1964.06338,489.906929 C1964.06338,614.689037 1863.846,714.91938 1740.06257,714.91938 C1616.27913,714.91938 1516.03582,614.689037 1516.03582,489.906929 L1516.03582,489.906929 Z M1740.07554,666.777173 C1835.37737,666.777173 1915.95852,588.165868 1915.95852,489.906929 C1915.95852,391.66096 1835.37737,314.036917 1740.07554,314.036917 C1641.8166,314.036917 1563.20529,391.66096 1563.20529,489.906929 C1563.00929,536.875707 1581.58017,581.977827 1614.7924,615.190062 C1648.00464,648.402297 1693.10676,666.973174 1740.07554,666.777173 Z M2082.82751,68.4284795 C2082.82751,36.0300068 2107.22364,11.5041815 2138.66235,11.5041815 C2169.59524,11.5041815 2194.1081,36.0300068 2194.1081,68.4284795 C2194.1081,101.449501 2169.58227,125.806719 2138.66235,125.806719 C2107.22364,125.806719 2082.82751,101.449501 2082.82751,68.4284795 Z M2138.66235,137.155264 C2175.97636,137.155264 2207.86902,108.1419 2207.86902,68.4284795 C2207.86902,29.0263338 2175.97636,0 2138.66235,0 C2100.92033,0 2068.9758,29.0263338 2068.9758,68.4284795 C2068.9758,108.12893 2100.92033,137.155264 2138.66235,137.155264 Z M2124.0973,73.8368715 L2137.89713,73.8368715 L2158.76549,108.12893 L2172.21513,108.12893 L2149.72556,73.3051111 C2161.28162,71.8914068 2170.24373,65.7177987 2170.24373,51.5029364 C2170.24373,36.0300068 2160.97035,29.0263338 2142.25498,29.0263338 L2112.16512,29.0263338 L2112.16512,108.12893 L2124.0973,108.12893 L2124.0973,73.8368715 Z M2124.0973,63.6945153 L2124.0973,39.2724481 L2140.41327,39.2724481 C2148.79174,39.2724481 2157.689,40.9974268 2157.689,50.8414783 C2157.689,63.0200876 2148.59719,63.6945153 2138.44186,63.6945153 L2124.0973,63.6945153 Z" id="Shape"></path>
    </g>
  </g>
</svg>
