<?xml version="1.0" encoding="UTF-8"?>
<svg xmlns="http://www.w3.org/2000/svg" xmlns:xlink="http://www.w3.org/1999/xlink" width="119px" height="66px" viewBox="0 0 119 66" version="1.1">
  <title>words-and-pictures-logo</title>
  <desc>Created with Sketch.</desc>
  <g id="Admin" stroke="none" stroke-width="1" fill="none" fill-rule="evenodd">
    <g id="Home-add" transform="translate(-30.000000, -25.000000)" fill="#EDEDEB" fill-rule="nonzero">
      <g id="words-and-pictures-logo" transform="translate(30.000000, 25.000000)">
        <path d="M117.625866,0 L1.37413395,0 C0.615220725,0 0,0.618184237 0,1.38075314 L0,64.6192469 C0,65.3818158 0.615220725,66 1.37413395,66 L117.625866,66 C118.383528,65.9969729 118.996987,65.3805584 119,64.6192469 L119,1.38075314 C118.996987,0.619441636 118.383528,0.00302711935 117.625866,0 M115.976905,62.0841841 C115.976905,62.581379 115.575781,62.9844351 115.08097,62.9844351 L3.90803695,62.9844351 C3.41322553,62.9844351 3.01210162,62.581379 3.01210162,62.0841841 L3.01210162,3.92686192 C3.01210162,3.429667 3.41322553,3.02654302 3.90803695,3.02654302 L115.069977,3.02654302 C115.309493,3.02365766 115.540212,3.11719992 115.710617,3.2863509 C115.881023,3.45550187 115.976905,3.68617427 115.976905,3.92686192 L115.976905,62.0841841 Z" id="Shape"></path>
        <path d="M26.9086151,10.1404494 C26.8357486,10.0526715 26.730804,10.0016054 26.6199808,10 L24.22004,10 C24.0334365,10.0003943 23.8747945,10.1433156 23.8458844,10.3370787 L22.4668538,19.6910112 C22.4502595,19.8474472 22.3225881,19.9645583 22.1728745,19.9606741 C22.027286,19.965993 21.8999487,19.8584442 21.87355,19.7078651 L20.0401877,10.3202247 C20.0047933,10.1352288 19.8509038,10.0016121 19.6713772,10 L17.4317888,10 C17.251371,10.0042926 17.0980223,10.1397756 17.0629783,10.3258427 L15.4006585,19.7191011 C15.3792796,19.8720031 15.2537081,19.9847883 15.1066791,19.983146 C14.958465,19.9851691 14.8311643,19.8728725 14.8073547,19.7191011 L13.2038308,10.3258427 C13.1650696,10.1493188 13.017993,10.0224201 12.8457104,10.0168539 L10.3762836,10.0168539 C10.2641034,10.0176014 10.1581617,10.0712147 10.0876493,10.1629213 C10.0143906,10.2526433 9.98478533,10.3729615 10.0074731,10.488764 L13.422979,29.6797752 C13.4583734,29.8647712 13.6122629,29.9983879 13.7917895,30 L16.2238008,30 C16.4057676,30 16.561417,29.8625833 16.5926113,29.6741573 L18.3137269,19.5617977 C18.3330014,19.408486 18.460732,19.2962024 18.6077063,19.3033708 L18.6077063,19.3033708 C18.7550057,19.2984793 18.8829887,19.4089757 18.9070308,19.5617977 L20.735048,29.6741573 C20.7685284,29.8603495 20.9235755,29.9949712 21.1038585,29.994382 L23.5358698,29.994382 C23.7170511,29.9922346 23.8715156,29.8557658 23.9046803,29.6685393 L26.9941363,10.4831461 C27.0135529,10.3692043 26.9842225,10.2520585 26.9139601,10.1629213" id="Path"></path>
        <path d="M39.8832487,28.0809185 C40.6984772,26.95462 41,25.6150902 41,23.4499727 L41,16.5445599 C41,14.3575724 40.6705584,13.0399125 39.8832487,11.913614 C38.9675127,10.6615637 37.4543147,10 35.5055838,10 C33.5568528,10 32.0436548,10.6615637 31.1167513,11.9354839 C30.3126904,13.0289776 30,14.3794423 30,16.5445599 L30,23.4499727 C30,25.6369601 30.3350254,26.95462 31.1502538,28.0809185 C32.0659898,29.3384363 33.5791878,30 35.5279188,30 C37.4766497,30 38.9898477,29.3384363 39.9055838,28.0809185 M33.8025381,14.1224713 C34.1780929,13.561021 34.817358,13.2227369 35.5027919,13.2227369 C36.1882258,13.2227369 36.8274908,13.561021 37.2030457,14.1224713 C37.4989848,14.6692182 37.5548223,15.0847458 37.5548223,16.5992346 L37.5548223,23.4171679 C37.5548223,24.9316566 37.4989848,25.3526517 37.2086294,25.8884636 C36.8299923,26.4473928 36.1905642,26.7834111 35.5055838,26.7834111 C34.8206033,26.7834111 34.1811752,26.4473928 33.8025381,25.8884636 C33.5456853,25.3799891 33.4507614,24.9261892 33.4507614,23.4062329 L33.4507614,16.5992346 C33.4507614,15.0792783 33.5456853,14.6309459 33.8025381,14.1279388" id="Shape"></path>
        <path d="M52.5036642,21.0022523 C54.0460459,20.0337838 54.8635082,18.2882883 54.8635082,15.8220721 C54.8635082,13.8063063 54.2979682,12.2522523 53.1823122,11.2162162 C52.2928721,10.3547297 51.1823573,10 49.5063025,10 L44.3650303,10 C44.1634296,10 44,10.1789853 44,10.3997748 L44,29.6058559 C44.0028114,29.8244433 44.1654205,30 44.3650303,30 L46.8379823,30 C47.0375921,30 47.2002012,29.8244433 47.2030126,29.6058559 L47.2030126,22.286036 C47.202988,22.1109583 47.3310867,21.9681616 47.4909238,21.9650901 L49.2235326,21.9650901 C49.3509414,21.9660848 49.4631644,22.0571253 49.5011613,22.1903153 L51.7221909,29.7072072 C51.7708555,29.8707593 51.9095932,29.9818818 52.0666561,29.9831081 L54.6372922,29.9831081 C54.7533415,29.9841026 54.862707,29.9237476 54.9310266,29.8210063 C54.9993462,29.7182651 55.0182347,29.5857475 54.9817574,29.4650901 L52.5036642,21.0022523 Z M51.5576702,15.9684685 C51.629554,16.7596185 51.411304,17.5496117 50.951,18.1644144 C50.5756872,18.5754505 50.0975488,18.7274775 48.9716102,18.7274775 L47.5063476,18.7274775 C47.3465105,18.7244059 47.2183904,18.5816093 47.2184364,18.4065315 L47.2184364,13.5754505 C47.2170568,13.4908523 47.2467801,13.4091965 47.3009242,13.34884 C47.3550682,13.2884834 47.4290897,13.2545045 47.5063476,13.2545045 L48.9716102,13.2545045 C50.0975488,13.2545045 50.5756872,13.384009 50.951,13.8175676 C51.4062555,14.4243216 51.6242936,15.2034292 51.5576702,15.9853604" id="Shape"></path>
        <path d="M64.5026278,10.0112549 L59.367893,10.0112549 C59.1647113,10.0112549 59,10.18762 59,10.4051773 L59,29.6060777 C59,29.823635 59.1647113,30 59.367893,30 L64.5026278,30 C68.1815576,30 70,27.9178391 70,23.6409679 L70,16.3534046 C70,12.0765335 68.20258,10 64.5026278,10 M62.2689919,26.4153067 L62.2689919,13.5846933 C62.2689919,13.4075395 62.4031139,13.263928 62.5685619,13.263928 L64.255614,13.263928 C66.1055901,13.263928 66.7310081,14.2487338 66.7310081,17.2031514 L66.7310081,22.8306134 C66.7310081,25.7568936 66.1055901,26.7698368 64.255614,26.7698368 L62.5685619,26.7698368 C62.4051448,26.7698368 62.2718588,26.6296512 62.2689919,26.4546989" id="Shape"></path>
        <path d="M79.8912394,18.7373629 L79.8912394,18.7373629 C77.910133,17.2189279 77.910133,17.2189279 77.437924,16.6891142 C76.9881335,16.2220695 76.7286288,15.6023371 76.7106137,14.9521993 C76.6941507,14.5025205 76.8621766,14.0658171 77.1752701,13.7445465 C77.4883635,13.4232758 77.9189687,13.2457135 78.3660588,13.2535183 C79.1367907,13.2535183 79.7284088,13.6904781 80.1680516,14.5862455 C80.2180946,14.6793335 80.3015808,14.7496707 80.4014422,14.7828774 C80.5012,14.8136686 80.6091512,14.8018176 80.6999651,14.7501054 L82.9633114,13.4337642 C83.0573011,13.3833657 83.1263745,13.2960717 83.1541354,13.1926035 C83.1818964,13.0891353 83.1658694,12.9787191 83.109859,12.8875645 C82.2413184,11.0605242 80.3772479,9.92728577 78.3660588,10.0036303 C75.3374084,10.0036303 73.2206097,12.0136451 73.2206097,14.9194273 C73.2162504,16.1019484 73.5976039,17.2532405 74.3061475,18.1966253 C75.0226024,19.1251647 75.1420116,19.2398666 77.7907238,21.3318113 C79.9617994,23.0250303 80.5045683,23.7460139 80.5045683,24.8384132 C80.5015767,25.9011314 79.6446414,26.7610403 78.5885941,26.761036 L78.5885941,26.761036 C77.4596348,26.761036 76.688903,26.1001344 76.2275494,24.7619452 C76.1933827,24.6630837 76.120955,24.5823187 76.0267249,24.5380034 C75.9351903,24.4968764 75.8305919,24.4968764 75.7390574,24.5380034 L73.2477481,25.4774668 C73.0558649,25.5469831 72.9545277,25.7582226 73.0197852,25.9526605 C73.8719324,28.6399628 75.7336297,30 78.5994495,30 C81.7800752,30 84,27.9189793 84,24.9367291 C83.9979995,23.6210983 83.5499534,22.3455371 82.7299208,21.3208873 C81.8954014,20.343821 80.9458108,19.4725992 79.9020948,18.7264389" id="Path"></path>
        <path d="M15.47343,36 L10.3772947,36 C10.1709783,36 10.0029059,36.1754085 10,36.3938115 L10,55.6005626 C10,55.8211658 10.1689206,56 10.3772947,56 L12.9333333,56 C13.1417074,56 13.310628,55.8211658 13.310628,55.6005626 L13.310628,48.1012658 L15.4362319,48.1012658 C17.3545894,48.1012658 18.5608696,47.7018284 19.4642512,46.7735584 C20.5270531,45.7271449 21,44.2194093 21,42.0365682 C21,39.8537271 20.5004831,38.3572433 19.4642512,37.3277075 C18.5608696,36.3994374 17.3386473,36 15.4362319,36 M13.310628,39.583685 C13.310628,39.4096881 13.4438612,39.2686357 13.6082126,39.2686357 L14.8410628,39.2686357 C16.9985507,39.2686357 17.6202899,39.8874824 17.6202899,42.0365682 C17.6202899,44.185654 16.9985507,44.8495077 14.8410628,44.8495077 L13.6294686,44.8495077 C13.4651172,44.8495077 13.3318841,44.7084554 13.3318841,44.5344585 L13.310628,39.583685 Z" id="Shape"></path>
        <path d="M27.6623488,36 L25.3376167,36 C25.1522408,36.0030246 25.002593,36.1775807 25,36.3938115 L25,55.6005626 C25,55.8189873 25.1503786,55.9969236 25.3376167,56 L27.6623488,56 C27.7527323,56 27.8393455,55.9577486 27.9028014,55.8826734 C27.9662573,55.8075981 28.0012567,55.7059792 27.9999655,55.6005626 L27.9999655,36.3938115 C27.9999655,36.2893662 27.9643953,36.1891987 27.9010799,36.1153447 C27.8377644,36.0414907 27.7518903,36 27.6623488,36" id="Path"></path>
        <path d="M41.5453629,49.2713856 L38.8618952,49.2713856 C38.6509023,49.2742336 38.4797146,49.4405903 38.4737903,49.6485379 C38.4737903,51.7966658 37.7918347,52.7969391 36.4112903,52.7969391 C35.6806361,52.8075632 35.0190572,52.3727458 34.7479839,51.7037442 C34.4886997,50.8166575 34.3874008,49.8919654 34.4485887,48.970757 L34.4485887,42.6739546 C34.4485887,41.1544138 34.531754,40.6406122 34.8810484,40.0612189 C35.1978434,39.5220541 35.7972231,39.2064805 36.4279234,39.2467887 C37.2706653,39.2467887 38.390625,39.5310194 38.4349798,41.9797759 C38.4379595,42.1868423 38.6075046,42.3539906 38.8175403,42.3569281 L41.4899194,42.3569281 C41.5946046,42.3588926 41.6952696,42.317211 41.7671371,42.2421427 C41.8435684,42.1692185 41.885754,42.0682161 41.8835685,41.963378 C41.828125,38.2301175 39.7878024,36 36.4279234,36 C34.5594758,36 33.0514113,36.6613829 32.1698589,37.8584313 C31.2883065,39.0554796 31,40.2088002 31,43.2588139 L31,48.5717409 C31,51.4468434 31.2051411,52.5673681 31.953629,53.7808144 C32.8296371,55.2128997 34.4264113,56 36.4556452,56 C40.015121,56 41.922379,53.8136103 42,49.6376059 C41.9990771,49.5333646 41.9573665,49.4334994 41.8835685,49.3588412 C41.811701,49.2837728 41.7110361,49.2420913 41.6063508,49.2440558" id="Path"></path>
        <path d="M54.6089385,36 L44.3910615,36 C44.1763406,36.0030246 44.0030035,36.1775807 44,36.3938115 L44,38.8748242 C44.0030035,39.0910551 44.1763406,39.2656111 44.3910615,39.2686357 L47.4301676,39.2686357 C47.603876,39.2686088 47.7455558,39.4087819 47.7486034,39.583685 L47.7486034,55.6005626 C47.7471078,55.7059792 47.7876476,55.8075981 47.8611485,55.8826734 C47.9346495,55.9577486 48.0349736,56 48.1396648,56 L50.8324022,56 C51.0492801,55.9969236 51.2234852,55.8189873 51.2234637,55.6005626 L51.2234637,39.583685 C51.2234637,39.4096881 51.363531,39.2686357 51.5363128,39.2686357 L54.6089385,39.2686357 C54.8236594,39.2656111 54.9969965,39.0910551 55,38.8748242 L55,36.3938115 C54.9969965,36.1775807 54.8236594,36.0030246 54.6089385,36" id="Path"></path>
        <path d="M67.640999,36 L65.1279917,36 C64.9280175,36.002981 64.766585,36.1750206 64.7637877,36.3881342 L64.7637877,49.7621292 C64.7637877,52.2184641 64.0665973,52.7230385 63.0156087,52.7230385 C61.9646202,52.7230385 61.2414152,52.2240089 61.2414152,49.7621292 L61.2414152,36.3881342 C61.2386179,36.1750206 61.0771854,36.002981 60.8772112,36 L58.364204,36 C58.2676111,36 58.1749744,36.0408926 58.1066729,36.1136819 C58.0383714,36.1864711 58,36.2851946 58,36.3881342 L58,49.2686443 C58,51.7416135 58.2757544,53.0280011 59.0718002,54.1702246 C59.867846,55.312448 61.2934443,56 63.0104058,56 C64.7273673,56 66.1009365,55.3512614 66.9229969,54.1702246 C67.7450572,52.9891877 68,51.7416135 68,49.2686443 L68,36.3881342 C67.9971549,36.1728797 67.8325962,36 67.6305931,36" id="Path"></path>
        <path d="M95.6335094,36 L87.3665281,36 C87.2693287,36 87.1761104,36.0414907 87.1073801,36.1153447 C87.0386497,36.1891987 87,36.2893662 87,36.3938115 L87,55.6005626 C86.9986358,55.7059792 87.0366285,55.8075981 87.1055113,55.8826734 C87.1743941,55.9577486 87.2684148,56 87.3665281,56 L95.6335094,56 C95.8367606,55.9969236 96,55.8189873 96,55.6005626 L96,53.1251758 C96,52.9076797 95.8359166,52.7313643 95.6335094,52.7313643 L90.2565684,52.7313643 L90.2565684,47.1954993 L94.2146671,47.1954993 C94.4199658,47.1954993 94.5863933,47.0166651 94.5863933,46.7960619 L94.5863933,44.3206751 C94.5835303,44.1022721 94.4179385,43.9268419 94.2146671,43.9268636 L90.2565684,43.9268636 L90.2565684,39.2686357 L95.6335094,39.2686357 C95.8347391,39.2656111 95.9971852,39.0910551 96,38.8748242 L96,36.3938115 C95.9971852,36.1775807 95.8347391,36.0030246 95.6335094,36" id="Path"></path>
        <path d="M80.4945527,47.0098453 C82.0362138,46.0421941 82.8532942,44.2981716 82.8532942,41.8284107 C82.8532942,39.814346 82.2880185,38.2672293 81.1728836,37.2320675 C80.2735813,36.371308 79.173863,36 77.4985913,36 L72.3597209,36 C72.264317,36 72.1728206,36.0414907 72.1053598,36.1153447 C72.0378991,36.1891987 72,36.2893662 72,36.3938115 L72,55.6061885 C72,55.8236846 72.1610525,56 72.3597209,56 L74.8366564,56 C75.0341691,55.9969754 75.1936145,55.8224193 75.1963774,55.6061885 L75.1963774,48.2925457 C75.1949984,48.208019 75.2247078,48.1264321 75.2788266,48.0661265 C75.3329454,48.0058209 75.4069322,47.9718571 75.4841541,47.9718706 L77.2159534,47.9718706 C77.3419255,47.9720721 77.4536719,48.0604263 77.4934524,48.1912799 L79.6980278,55.7130802 C79.7466697,55.8764942 79.8853426,55.987523 80.0423321,55.9887482 L82.6374617,55.9887482 C82.7534567,55.9897419 82.8627712,55.9294378 82.9310589,55.8267833 C82.9993465,55.7241287 83.0182262,55.591723 82.981766,55.4711674 L80.4945527,47.0098453 Z M79.5490006,41.9859353 C79.6197083,42.7762951 79.4016897,43.5651528 78.9426139,44.1800281 C78.5674763,44.5907173 78.0895614,44.742616 76.9641488,44.742616 L75.4995707,44.742616 C75.340636,44.742616 75.211794,44.6015637 75.211794,44.4275668 L75.211794,39.583685 C75.211794,39.4096881 75.340636,39.2686357 75.4995707,39.2686357 L76.9641488,39.2686357 C78.0895614,39.2686357 78.5674763,39.3980309 78.9426139,39.8312236 C79.3926001,40.436037 79.6100599,41.2087504 79.5490006,41.9859353" id="Shape"></path>
        <path d="M108.706001,47.3559225 C107.873552,46.3791119 106.926317,45.5081181 105.885191,44.7621532 L105.885191,44.7621532 C103.898171,43.238655 103.898171,43.238655 103.432548,42.6925983 C102.984409,42.2231134 102.725755,41.6020918 102.707042,40.9506774 C102.69214,40.5020462 102.860423,40.0669012 103.172568,39.746923 C103.484714,39.4269449 103.913373,39.2501686 104.35838,39.2579017 C105.127199,39.2579017 105.71735,39.694747 106.155902,40.5848195 C106.203814,40.6806833 106.28758,40.753378 106.388713,40.7868604 C106.489008,40.815349 106.596474,40.8015546 106.686496,40.7486365 L108.944227,39.4381004 C109.036806,39.3865715 109.104659,39.2993218 109.132222,39.1963616 C109.159785,39.0934013 109.144695,38.9835652 109.090411,38.8920437 C108.224525,37.0643535 106.365462,35.9294999 104.35838,36.0034038 C101.337243,36.0034038 99.2256964,38.018353 99.2256964,40.917914 C99.2213479,42.1001256 99.6017554,43.2511164 100.308541,44.1942542 C101.023218,45.11709 101.142331,45.2372225 103.779058,47.3286197 C105.944747,49.0159348 106.486169,49.7367297 106.486169,50.8343036 C106.477304,51.8942623 105.625932,52.7504891 104.574949,52.7564232 L104.574949,52.7564232 C103.44879,52.7564232 102.679971,52.0956946 102.219762,50.7578557 C102.18568,50.65902 102.113432,50.5782762 102.019435,50.5339725 C101.92567,50.4957178 101.820833,50.4957178 101.727067,50.5339725 L99.2473533,51.47319 C99.0552141,51.5450261 98.9544861,51.7578816 99.019956,51.9537199 C99.869989,54.6348583 101.727067,56 104.585777,56 C107.753097,56 110,53.9140634 110,50.9325939 C109.995481,49.6194076 109.548764,48.3467247 108.733072,47.3231591" id="Path"></path>
        <path d="M99.6440678,10.0280191 L97.3559322,10.0280191 C97.1593563,10.0280191 97,10.2036429 97,10.4202858 L97,29.6077333 C97,29.8243762 97.1593563,30 97.3559322,30 L99.6440678,30 C99.8406437,30 100,29.8243762 100,29.6077333 L100,10.3922667 C100,10.1756238 99.8406437,10 99.6440678,10" id="Path"></path>
        <path d="M89,18.3762666 L89,20.6440357 C89,20.7384337 89.0413164,20.8289653 89.1148601,20.8957148 C89.1884038,20.9624642 89.2881504,20.9999636 89.3921569,20.9999636 L108.602241,20.9999636 C108.707215,21.0013249 108.808407,20.9644272 108.883166,20.8975297 C108.957926,20.8306321 109,20.7393213 109,20.6440357 L109,18.3559279 C108.996937,18.1585347 108.819748,18 108.602241,18 L89.3921569,18 C89.1755746,18 89,18.1593543 89,18.3559279" id="Path"></path>
      </g>
    </g>
  </g>
</svg>
